<?xml version="1.0" standalone="no"?>
<!DOCTYPE svg PUBLIC "-//W3C//DTD SVG 20010904//EN"
 "http://www.w3.org/TR/2001/REC-SVG-20010904/DTD/svg10.dtd">
<svg version="1.0" xmlns="http://www.w3.org/2000/svg"
 width="288.000000pt" height="288.000000pt" viewBox="0 0 288.000000 288.000000"
 preserveAspectRatio="xMidYMid meet">

<g transform="translate(0.000000,288.000000) scale(0.100000,-0.100000)"
fill="#000000" stroke="none">
<path d="M0 1440 l0 -1440 1440 0 1440 0 0 1440 0 1440 -1440 0 -1440 0 0
-1440z m1668 687 c4 -22 -76 -118 -131 -158 -32 -23 -51 -29 -92 -29 -59 0
-214 42 -226 62 -26 40 19 46 130 17 57 -15 96 -20 116 -15 16 4 60 38 99 77
70 68 98 80 104 46z m162 -177 c0 -28 -78 -90 -114 -90 -41 0 -148 30 -166 46
-12 12 -12 16 2 30 14 15 22 15 87 0 76 -17 87 -15 139 25 27 21 52 15 52 -11z
m85 -80 c4 -6 -7 -10 -25 -10 -18 0 -29 4 -25 10 3 6 15 10 25 10 10 0 22 -4
25 -10z m71 0 c9 0 13 -4 10 -9 -7 -11 -56 -2 -56 11 0 6 7 7 16 4 9 -3 22 -6
30 -6z m79 -20 c3 -5 -3 -10 -14 -10 -11 0 -23 5 -26 10 -3 6 3 10 14 10 11 0
23 -4 26 -10z m71 -25 c15 -11 16 -14 3 -15 -8 0 -24 7 -35 15 -15 11 -16 14
-3 15 8 0 24 -7 35 -15z m79 -45 c8 -13 -1 -13 -26 0 -10 6 -19 15 -19 21 0
11 35 -5 45 -21z m-550 -30 c4 -6 -7 -10 -27 -9 -31 1 -32 1 -8 9 14 4 26 8
27 9 1 1 5 -3 8 -9z m60 0 c18 -8 17 -9 -7 -9 -16 -1 -28 4 -28 9 0 12 8 12
35 0z m534 -12 c11 -30 4 -36 -14 -12 -17 23 -19 34 -5 34 6 0 14 -10 19 -22z
m-669 2 c0 -5 -3 -10 -7 -10 -5 0 -18 -3 -30 -6 -13 -4 -23 -2 -23 4 0 9 9 13
53 21 4 0 7 -3 7 -9z m220 0 c11 -7 7 -10 -17 -10 -18 0 -33 5 -33 10 0 13 30
13 50 0z m-310 -30 c-16 -11 -40 -13 -40 -5 0 8 44 24 50 18 2 -2 -2 -8 -10
-13z m374 14 c9 -3 16 -10 16 -14 0 -10 -38 -1 -46 11 -6 10 7 12 30 3z m-448
-50 c-30 -21 -44 -16 -17 7 13 11 27 17 30 13 3 -3 -3 -12 -13 -20z m533 10
c2 -2 2 -6 0 -9 -8 -7 -49 7 -49 17 0 8 38 2 49 -8z m-1128 -4 c11 -6 19 -21
19 -35 0 -37 -28 -45 -154 -45 l-116 0 0 -70 0 -70 104 0 c82 0 108 -3 120
-16 19 -18 19 -20 6 -45 -10 -17 -22 -19 -120 -19 l-110 0 0 -103 c0 -77 -4
-108 -16 -125 -20 -28 -69 -30 -84 -3 -6 12 -10 115 -10 265 0 242 0 245 22
260 18 13 53 16 171 16 83 0 157 -5 168 -10z m1429 -8 c0 -13 -36 -43 -42 -36
-4 3 1 14 10 24 18 20 32 25 32 12z m-236 -11 c11 -4 15 -10 10 -13 -10 -6
-54 8 -54 17 0 7 21 5 44 -4z m-659 -31 c-10 -11 -23 -20 -28 -20 -6 0 -2 9 8
20 10 11 23 20 28 20 6 0 2 -9 -8 -20z m729 14 c25 -10 19 -22 -9 -16 -14 2
-25 8 -25 13 0 10 12 11 34 3z m96 -14 c0 -5 -11 -10 -25 -10 -14 0 -25 5 -25
10 0 6 11 10 25 10 14 0 25 -4 25 -10z m-880 -59 c-6 -12 -16 -19 -21 -15 -6
4 -4 13 7 25 21 24 29 18 14 -10z m-505 -1 c-3 -5 -46 -10 -96 -10 l-89 0 0
-39 c0 -22 -4 -43 -10 -46 -6 -4 -10 15 -10 49 l0 56 106 0 c67 0 103 -4 99
-10z m299 -88 c43 -25 70 -66 63 -94 -5 -18 -32 -38 -107 -79 -55 -30 -100
-57 -100 -61 0 -11 52 -48 76 -54 38 -10 84 23 107 76 24 53 42 67 63 49 36
-30 1 -111 -67 -156 -59 -39 -155 -45 -203 -13 -80 55 -120 176 -82 248 50 95
164 134 250 84z m411 -1 c17 -9 39 -33 50 -53 19 -35 19 -37 2 -56 -10 -11
-58 -41 -108 -67 -49 -26 -89 -51 -89 -55 0 -12 44 -47 67 -54 13 -4 36 -1 56
9 34 16 47 33 67 88 12 34 37 45 57 24 14 -14 15 -22 5 -54 -32 -104 -176
-167 -272 -118 -59 30 -101 107 -102 186 0 56 21 100 63 130 70 50 139 56 204
20z m415 7 c54 -28 87 -77 70 -107 -16 -32 -49 -25 -85 16 -28 32 -38 38 -74
38 -28 0 -47 -7 -62 -21 -43 -43 -44 -154 -2 -196 11 -10 36 -21 57 -25 34 -5
40 -3 80 41 45 47 63 55 84 34 30 -30 -1 -94 -60 -124 -66 -34 -179 -23 -232
24 -48 43 -68 135 -45 215 29 107 163 158 269 105z m407 -4 c70 -52 95 -136
69 -227 -16 -56 -40 -84 -95 -112 -49 -25 -147 -17 -195 15 -106 72 -100 265
9 328 53 30 168 28 212 -4z m-1717 -239 c0 -52 -4 -97 -10 -100 -6 -4 -10 32
-10 100 0 68 4 104 10 100 6 -3 10 -48 10 -100z"/>
<path d="M973 1430 c-36 -15 -56 -55 -49 -96 4 -19 10 -34 14 -32 88 42 142
75 142 85 0 14 -57 53 -75 52 -5 0 -20 -4 -32 -9z"/>
<path d="M1387 1429 c-37 -10 -56 -36 -57 -74 0 -56 10 -57 89 -14 l73 41 -22
23 c-27 28 -46 34 -83 24z"/>
<path d="M2165 1414 c-29 -31 -40 -79 -30 -130 15 -83 99 -112 156 -55 26 26
29 36 29 89 0 50 -4 66 -26 91 -35 42 -93 44 -129 5z"/>
</g>
</svg>
